# xmcd
#
# Track frame offsets:
# 150
# 18846
# 36962
# 54638
# 68566
# 85130
# 101346
# 116827
# 132858
# 150104
# 166652
# 192836
#
# Disc length: 3351 seconds
#
#
# Revision: 0
# Processed by: cddbd v1.5.1PL2 Copyright (c) Steve Scherf et al.
# Submitted via: FreeRIP 2.944 
#
DISCID=880d150c
DTITLE=Angels - siguiendo el camino
DYEAR=2005
DGENRE=Ballad
TTITLE0=y no sé que pasó
TTITLE1=en mis sueños
TTITLE2=te amo
TTITLE3=¡ay amor qué has hecho!
TTITLE4=vuelo al cielo
TTITLE5=quisiera
TTITLE6=mi amor sin ti
TTITLE7=te necesito
TTITLE8=simplemente tú
TTITLE9=es por ti
TTITLE10=vuelve mi amor
TTITLE11=enhaced cd
EXTD=
EXTT0=
EXTT1=
EXTT2=
EXTT3=
EXTT4=
EXTT5=
EXTT6=
EXTT7=
EXTT8=[con noemí puga]
EXTT9=
EXTT10=
EXTT11=
PLAYORDER=
